<?xml version="1.0" encoding="UTF-8"?>
<svg id="Layer_4" data-name="Layer 4" xmlns="http://www.w3.org/2000/svg" xmlns:xlink="http://www.w3.org/1999/xlink" viewBox="0 0 7814.36 7814.36">
  <defs>
    <filter id="outer-glow-1" filterUnits="userSpaceOnUse">
      <feOffset dx="0" dy="0"/>
      <feGaussianBlur result="blur" stdDeviation="30"/>
      <feFlood flood-color="#fff" flood-opacity=".75"/>
      <feComposite in2="blur" operator="in"/>
      <feComposite in="SourceGraphic"/>
    </filter>
    <filter id="outer-glow-2" filterUnits="userSpaceOnUse">
      <feOffset dx="0" dy="0"/>
      <feGaussianBlur result="blur-2" stdDeviation="10"/>
      <feFlood flood-color="#7dfcff" flood-opacity=".75"/>
      <feComposite in2="blur-2" operator="in"/>
      <feComposite in="SourceGraphic"/>
    </filter>
    <filter id="outer-glow-3" filterUnits="userSpaceOnUse">
      <feOffset dx="0" dy="0"/>
      <feGaussianBlur result="blur-3" stdDeviation="10"/>
      <feFlood flood-color="#00959f" flood-opacity=".75"/>
      <feComposite in2="blur-3" operator="in"/>
      <feComposite in="SourceGraphic"/>
    </filter>
    <filter id="outer-glow-4" filterUnits="userSpaceOnUse">
      <feOffset dx="0" dy="0"/>
      <feGaussianBlur result="blur-4" stdDeviation="10"/>
      <feFlood flood-color="#00959f" flood-opacity=".75"/>
      <feComposite in2="blur-4" operator="in"/>
      <feComposite in="SourceGraphic"/>
    </filter>
    <filter id="outer-glow-5" filterUnits="userSpaceOnUse">
      <feOffset dx="0" dy="0"/>
      <feGaussianBlur result="blur-5" stdDeviation="10"/>
      <feFlood flood-color="#00959f" flood-opacity=".75"/>
      <feComposite in2="blur-5" operator="in"/>
      <feComposite in="SourceGraphic"/>
    </filter>
  </defs>
  <rect x="-200.97" y="-124.67" width="8100" height="8100" style="fill: #00959f;"/>
  <g style="filter: url(#outer-glow-1);">
    <g id="Nicola_Ghiselli_Solutions_averox_" data-name="Nicola Ghiselli Solutions (averox)">
      <path d="m1290.72,4926.62c-12.98,0-23.39-3.4-31.23-10.18-7.85-6.79-14.34-15.46-19.46-26.03-5.13-10.56-9.89-22.18-14.26-34.85-4.38-12.67-9.58-25.04-15.62-37.12-6.04-12.07-13.96-22.02-23.76-29.87-9.81-7.84-23.01-11.77-39.61-11.77h-71.06v149.37h-18.11v-316.85h108.63c30.48,0,54.54,6.42,72.2,19.24,17.65,12.83,26.48,34.48,26.48,64.95,0,25.96-6.27,45.49-18.78,58.62-12.53,13.13-28.59,20.9-48.21,23.31,10.86,8.45,19.16,17.58,24.9,27.38,5.73,9.81,10.56,20.59,14.48,32.36l4.07,10.86c3.92,11.77,8.07,22.33,12.45,31.68,4.37,9.36,9.35,16.83,14.94,22.41,5.58,5.59,12.9,8.37,21.95,8.37v18.11Zm-122.21-167.93c25.64,0,45.11-4.82,58.39-14.48,13.28-9.65,19.92-26.55,19.92-50.7s-6.87-41.56-20.59-51.37c-13.73-9.8-33.72-14.71-59.97-14.71h-90.53v131.27h92.79Z" style="fill: #fff;"/>
      <path d="m1491.25,4926.17l-14.14-21.88c-13.26,19.45-30.36,29.17-51.28,29.17-17.68,0-33.23-7-46.63-21-13.41-14-20.11-31.09-20.11-51.28,0-15.62,4.53-29.47,13.59-41.55,9.06-12.08,21.55-20.48,37.46-25.2-10.91-17.53-17.43-29.06-19.56-34.59-2.14-5.53-3.21-11.23-3.21-17.13,0-14.59,5.53-27.37,16.58-38.35,11.05-10.97,24.31-16.47,39.78-16.47,5.01,0,10.02.74,15.03,2.21,5.01,1.47,10.02,3.76,15.03,6.85,6.33-3.24,10.24-4.86,11.71-4.86,2.5,0,4.68.92,6.52,2.76,1.84,1.84,2.76,4.09,2.76,6.74,0,1.77-.52,3.39-1.55,4.86-1.03,1.47-3.09,3.02-6.19,4.64l-14.37,7.74c-4.57-4.12-9.25-7.18-14.03-9.17-4.79-1.99-9.69-2.98-14.7-2.98-10.17,0-19.05,3.76-26.63,11.27-7.59,7.51-11.38,15.91-11.38,25.2s6.63,24.9,19.89,45.97l51.28,81.55c8.99-16.94,16.06-36.54,21.22-58.79h18.12c4.42,0,7.59.88,9.5,2.65,1.91,1.77,2.87,3.98,2.87,6.63,0,1.92-.55,3.68-1.66,5.3-1.11,1.62-2.4,2.73-3.87,3.32-1.47.59-5.08.88-10.83.88-7.07,24.9-15.18,44.2-24.31,57.91l12.6,19.01h15.69c4.42,0,7.59.85,9.5,2.54,1.91,1.7,2.87,3.94,2.87,6.74,0,2.65-.96,4.86-2.87,6.63-1.92,1.77-5.08,2.65-9.5,2.65h-25.2Zm-73.16-115.37c-12.38,2.95-22.21,8.95-29.5,18.01-7.29,9.06-10.94,19.86-10.94,32.38,0,14.88,4.9,27.55,14.7,38.01,9.8,10.46,20.81,15.69,33.04,15.69,16.5,0,30.13-9.28,40.89-27.85l-48.18-76.25Z" style="fill: #fff;"/>
      <path d="m1719.41,4926.17h-122.21v-316.85h122.21c31.08,0,56.95,7.47,77.63,22.41,20.67,14.94,36.28,34.4,46.85,58.39,10.56,23.99,15.84,49.87,15.84,77.63s-5.28,53.72-15.84,77.85c-10.57,24.15-26.18,43.61-46.85,58.39-20.67,14.79-46.55,22.18-77.63,22.18Zm0-18.11c25.64,0,47.53-6.11,65.63-18.33s32.06-28.89,41.87-50.02c9.8-21.12,14.71-45.11,14.71-71.97s-4.91-50.84-14.71-71.97c-9.81-21.12-23.76-37.8-41.87-50.02s-39.99-18.33-65.63-18.33h-104.11v280.64h104.11Z" style="fill: #fff;"/>
      <path d="m1924.91,4961.47h-16.75l14.48-36.66c-4.23-.91-7.69-3.01-10.41-6.34-2.72-3.32-4.07-7.09-4.07-11.32,0-5.13,1.81-9.43,5.43-12.9,3.62-3.47,7.84-5.21,12.67-5.21,5.13,0,9.43,1.74,12.9,5.21,3.47,3.47,5.21,7.77,5.21,12.9,0,6.34-1.97,13.28-5.88,20.82l-13.58,33.5Z" style="fill: #fff;"/>
      <path d="m2340.42,4627.42h-229.04v-18.11h229.04v18.11Zm-210.93,298.74h-18.11v-167.48h206.4v18.11h-188.3v149.37Z" style="fill: #fff;"/>
      <path d="m2504.72,4926.17c-29.87,0-54.17-7.39-72.88-22.18-18.71-14.78-32.36-34.25-40.96-58.39-8.6-24.14-12.9-50.09-12.9-77.85v-158.42h18.11v158.42c0,26.56,3.77,50.4,11.32,71.52,7.54,21.12,19.39,37.87,35.53,50.24,16.14,12.38,36.73,18.56,61.79,18.56s46.01-6.18,62.01-18.56c15.99-12.37,27.76-29.12,35.31-50.24,7.54-21.12,11.32-44.96,11.32-71.52v-158.42h18.11v158.42c0,27.77-4.3,53.72-12.9,77.85-8.6,24.15-22.18,43.61-40.74,58.39-18.56,14.79-42.93,22.18-73.1,22.18Z" style="fill: #fff;"/>
      <path d="m2919.78,4926.17h-230.85v-316.85h18.11v298.74h212.74v18.11Z" style="fill: #fff;"/>
      <path d="m3191.36,4926.17h-230.84v-316.85h18.11v298.74h212.74v18.11Z" style="fill: #fff;"/>
      <path d="m3338.47,4926.17c-22.63,0-42.17-2.79-58.62-8.37-16.45-5.58-29.8-11.84-40.06-18.78-10.26-6.94-17.36-12.67-21.27-17.2l13.13-12.67c3.01,3.62,8.98,8.45,17.88,14.48,8.9,6.04,20.82,11.62,35.76,16.75,14.94,5.13,32.66,7.69,53.19,7.69,27.76,0,50.16-5.13,67.22-15.39,17.04-10.26,25.57-24.29,25.57-42.1s-6.04-30.33-18.11-40.29c-12.07-9.96-29.27-19.01-51.6-27.16l-44.36-17.65c-16.9-6.63-31.84-13.81-44.81-21.5-12.98-7.7-23.16-16.52-30.55-26.48-7.4-9.96-11.09-21.88-11.09-35.76,0-22.63,10.33-40.36,31.01-53.19,20.67-12.82,45.64-19.24,74.91-19.24,21.12,0,41.34,3.78,60.65,11.32,19.31,7.55,34.7,18.26,46.17,32.14l-14.03,11.32c-9.05-10.56-22.11-19.31-39.15-26.25-17.05-6.94-34.93-10.41-53.64-10.41-26.25,0-47.46,5.06-63.6,15.16-16.15,10.11-24.22,23.16-24.22,39.15,0,14.48,6.11,26.78,18.33,36.89,12.22,10.11,31.15,20.14,56.81,30.1,14.78,5.74,29.8,11.62,45.04,17.65,15.23,6.04,28.97,12.83,41.19,20.37,12.22,7.55,21.8,16.37,28.74,26.48,6.94,10.11,10.41,22.56,10.41,37.34,0,16.6-5.06,30.55-15.16,41.87-10.11,11.32-23.62,19.77-40.51,25.35-16.9,5.59-35.3,8.37-55.22,8.37Z" style="fill: #fff;"/>
      <path d="m3605.97,4926.17h-18.11v-298.74h-126.74v-18.11h271.58v18.11h-126.74v298.74Z" style="fill: #fff;"/>
      <path d="m3987.09,4926.17h-19.46l-126.29-293.76-126.29,293.76h-19.92l136.24-316.85h19.46l136.24,316.85Z" style="fill: #fff;"/>
      <path d="m4131.49,4926.17c-30.78,0-56.58-7.47-77.4-22.41-20.82-14.94-36.52-34.47-47.08-58.62-10.57-24.14-15.84-49.94-15.84-77.4s5.28-53.64,15.84-77.63c10.56-23.99,26.25-43.45,47.08-58.39,20.82-14.94,46.62-22.41,77.4-22.41,22.33,0,42.24,4.15,59.75,12.45,17.5,8.3,32.29,19.85,44.36,34.63l-14.03,11.32c-21.73-26.85-51.76-40.29-90.08-40.29-25.35,0-47.15,6.11-65.41,18.33-18.26,12.22-32.29,28.9-42.09,50.02-9.81,21.13-14.71,45.12-14.71,71.97s4.9,50.85,14.71,71.97c9.8,21.12,23.83,37.79,42.09,50.02,18.25,12.22,40.06,18.33,65.41,18.33,38.32,0,68.35-13.42,90.08-40.28l14.03,11.32c-12.07,14.48-26.86,25.96-44.36,34.4-17.5,8.45-37.42,12.67-59.75,12.67Z" style="fill: #fff;"/>
      <path d="m4503.1,4926.17l-25.35-.45-137.6-136.7-48.89,51.15v86h-18.11v-316.85h18.11v204.59l195.09-204.59h24.89l-158.42,166.57,150.28,150.28Z" style="fill: #fff;"/>
      <path d="m4919.52,4926.17h-230.85v-316.85h226.32v18.11h-208.21v131.27h190.11v18.11h-190.11v131.27h212.74v18.11Z" style="fill: #fff;"/>
      <path d="m5218.26,4926.17h-20.37l-215-289.69v289.69h-18.11v-316.85h20.37l215,289.69v-289.69h18.11v316.85Z" style="fill: #fff;"/>
      <path d="m5396.14,4926.17c-30.78,0-56.58-7.54-77.4-22.63-20.82-15.09-36.52-34.63-47.07-58.62-10.57-23.99-15.84-49.71-15.84-77.17s5.28-53.71,15.84-77.85c10.56-24.14,26.25-43.6,47.07-58.39,20.82-14.78,46.62-22.18,77.4-22.18,43.75,0,78.46,15.69,104.11,47.07l-14.03,11.32c-21.73-26.85-51.76-40.29-90.08-40.29-25.65,0-47.6,6.04-65.86,18.11-18.26,12.07-32.21,28.74-41.87,50.02-9.66,21.27-14.48,45.34-14.48,72.2s4.82,50.47,14.48,71.74c9.65,21.27,23.61,38.02,41.87,50.24,18.25,12.22,40.21,18.33,65.86,18.33,35.31,0,63.67-11.46,85.1-34.4v-97.32h-113.16v-18.11h131.26v122.21c-12.07,14.19-26.71,25.35-43.91,33.5s-36.97,12.22-59.3,12.22Z" style="fill: #fff;"/>
      <path d="m5565.87,4926.17h-18.11v-316.85h18.11v316.85Z" style="fill: #fff;"/>
      <path d="m5873.66,4926.17h-20.37l-215-289.69v289.69h-18.11v-316.85h20.37l215,289.69v-289.69h18.11v316.85Z" style="fill: #fff;"/>
      <path d="m6149.76,4627.42h-216.36v-18.11h216.36v18.11Zm-27.16,149.37h-189.2v-18.11h189.2v18.11Zm31.68,149.37h-220.89v-18.11h220.89v18.11Z" style="fill: #fff;"/>
      <path d="m6425.87,4627.42h-216.36v-18.11h216.36v18.11Zm-27.16,149.37h-189.2v-18.11h189.2v18.11Zm31.68,149.37h-220.89v-18.11h220.89v18.11Z" style="fill: #fff;"/>
      <path d="m6698.35,4926.17h-19.46c-3.62-8.15-13.73-30.78-30.33-67.9-16.6-37.12-30.48-59.97-41.64-68.57-11.17-8.6-25.2-12.9-42.09-12.9h-76.04v-18.11h97.77c25.35,0,44.73-4.9,58.16-14.71,13.42-9.8,20.14-26.63,20.14-50.47s-6.87-41.56-20.59-51.37c-13.73-9.8-33.72-14.71-59.97-14.71h-95.51v-18.11h95.51c30.47,0,54.61,6.34,72.42,19.01,17.5,12.98,26.25,34.7,26.25,65.18,0,25.65-6.27,45.12-18.78,58.39-12.53,13.28-28.59,21.13-48.21,23.54,7.54,4.53,15.31,13.06,23.31,25.57,7.99,12.53,18.56,33.5,31.68,62.92,13.13,29.42,21.65,48.96,25.57,58.62l1.81,3.62Z" style="fill: #fff;"/>
      <path d="m6768.05,4961.47h-16.75l14.48-36.66c-4.23-.91-7.69-3.01-10.41-6.34-2.71-3.32-4.07-7.09-4.07-11.32,0-5.13,1.81-9.43,5.43-12.9,3.62-3.47,7.84-5.21,12.67-5.21,5.13,0,9.43,1.74,12.9,5.21,3.47,3.47,5.21,7.77,5.21,12.9,0,6.34-1.97,13.28-5.88,20.82l-13.58,33.5Z" style="fill: #fff;"/>
      <path d="m2166.8,5469.33h-18.11v-316.85h18.11v316.85Z" style="fill: #fff;"/>
      <path d="m2354.19,5469.33h-18.11v-298.74h-126.74v-18.11h271.58v18.11h-126.74v298.74Z" style="fill: #fff;"/>
      <path d="m2791.43,5469.33c-30.78,0-56.58-7.47-77.4-22.41-20.82-14.94-36.52-34.47-47.08-58.62-10.57-24.14-15.84-49.94-15.84-77.4s5.28-53.64,15.84-77.63c10.56-23.99,26.25-43.45,47.08-58.39,20.82-14.94,46.62-22.41,77.4-22.41,22.33,0,42.24,4.15,59.75,12.45,17.5,8.3,32.29,19.85,44.36,34.63l-14.03,11.32c-21.73-26.85-51.76-40.29-90.08-40.29-25.35,0-47.15,6.11-65.41,18.33-18.26,12.22-32.29,28.9-42.09,50.02-9.81,21.13-14.71,45.12-14.71,71.97s4.9,50.85,14.71,71.97c9.8,21.12,23.83,37.79,42.09,50.02,18.25,12.22,40.06,18.33,65.41,18.33,38.32,0,68.35-13.42,90.08-40.28l14.03,11.32c-12.07,14.48-26.86,25.96-44.36,34.4-17.5,8.45-37.42,12.67-59.75,12.67Z" style="fill: #fff;"/>
      <path d="m3058.49,5469.33c-30.78,0-56.58-7.39-77.4-22.18-20.82-14.78-36.52-34.25-47.08-58.39-10.57-24.14-15.84-50.09-15.84-77.85s5.28-53.64,15.84-77.63c10.56-23.99,26.25-43.45,47.08-58.39s46.62-22.41,77.4-22.41,56.96,7.47,77.63,22.41c20.67,14.94,36.28,34.4,46.85,58.39,10.56,23.99,15.84,49.87,15.84,77.63s-5.28,53.26-15.84,77.4c-10.57,24.15-26.18,43.68-46.85,58.62-20.67,14.94-46.55,22.41-77.63,22.41Zm0-18.11c25.65,0,47.53-6.11,65.63-18.33s32.06-28.89,41.87-50.02c9.8-21.12,14.71-45.11,14.71-71.97s-4.91-50.84-14.71-71.97c-9.81-21.12-23.76-37.8-41.87-50.02s-39.99-18.33-65.63-18.33-47.15,6.11-65.41,18.33c-18.26,12.22-32.29,28.9-42.09,50.02-9.81,21.13-14.71,45.12-14.71,71.97s4.9,50.85,14.71,71.97c9.8,21.12,23.83,37.79,42.09,50.02,18.25,12.22,40.06,18.33,65.41,18.33Z" style="fill: #fff;"/>
      <path d="m3497.54,5469.33h-20.37l-215-289.69v289.69h-18.11v-316.85h20.37l215,289.69v-289.69h18.11v316.85Z" style="fill: #fff;"/>
      <path d="m3650.53,5469.33c-22.63,0-42.17-2.79-58.62-8.37-16.45-5.58-29.8-11.84-40.06-18.78-10.26-6.94-17.36-12.67-21.27-17.2l13.13-12.67c3.01,3.62,8.97,8.45,17.88,14.48,8.9,6.04,20.82,11.62,35.76,16.75,14.94,5.13,32.66,7.69,53.18,7.69,27.76,0,50.17-5.13,67.22-15.39,17.04-10.26,25.57-24.29,25.57-42.1s-6.04-30.33-18.11-40.29c-12.07-9.96-29.27-19.01-51.6-27.16l-44.36-17.65c-16.9-6.63-31.84-13.81-44.81-21.5-12.98-7.7-23.16-16.52-30.55-26.48-7.4-9.96-11.09-21.88-11.09-35.76,0-22.63,10.33-40.36,31.01-53.19,20.67-12.82,45.64-19.24,74.91-19.24,21.12,0,41.34,3.78,60.65,11.32,19.31,7.55,34.7,18.26,46.17,32.14l-14.03,11.32c-9.05-10.56-22.11-19.31-39.15-26.25-17.05-6.94-34.93-10.41-53.64-10.41-26.25,0-47.46,5.06-63.6,15.16-16.15,10.11-24.22,23.16-24.22,39.15,0,14.48,6.11,26.78,18.33,36.89,12.22,10.11,31.15,20.14,56.81,30.1,14.78,5.74,29.8,11.62,45.04,17.65,15.23,6.04,28.97,12.83,41.19,20.37,12.22,7.55,21.8,16.37,28.74,26.48,6.94,10.11,10.41,22.56,10.41,37.34,0,16.6-5.06,30.55-15.16,41.87-10.11,11.32-23.62,19.77-40.51,25.35-16.9,5.59-35.31,8.37-55.22,8.37Z" style="fill: #fff;"/>
      <path d="m3921.21,5469.33c-29.87,0-54.17-7.39-72.88-22.18-18.71-14.78-32.36-34.25-40.96-58.39-8.6-24.14-12.9-50.09-12.9-77.85v-158.42h18.11v158.42c0,26.56,3.77,50.4,11.32,71.52,7.54,21.12,19.39,37.87,35.53,50.24,16.14,12.38,36.73,18.56,61.79,18.56s46.01-6.18,62.01-18.56c15.99-12.37,27.76-29.12,35.31-50.24,7.54-21.12,11.32-44.96,11.32-71.52v-158.42h18.11v158.42c0,27.77-4.3,53.72-12.9,77.85-8.6,24.15-22.18,43.61-40.74,58.39-18.56,14.79-42.93,22.18-73.1,22.18Z" style="fill: #fff;"/>
      <path d="m4336.27,5469.33h-230.85v-316.85h18.11v298.74h212.74v18.11Z" style="fill: #fff;"/>
      <path d="m4413.21,5469.33h-18.11v-298.74h-126.74v-18.11h271.58v18.11h-126.74v298.74Z" style="fill: #fff;"/>
      <path d="m4794.33,5469.33h-19.46l-126.29-293.76-126.29,293.76h-19.92l136.24-316.85h19.46l136.24,316.85Z" style="fill: #fff;"/>
      <path d="m5093.07,5469.33h-20.37l-215-289.69v289.69h-18.11v-316.85h20.37l215,289.69v-289.69h18.11v316.85Z" style="fill: #fff;"/>
      <path d="m5278.65,5469.33c-30.78,0-56.58-7.47-77.4-22.41s-36.51-34.47-47.07-58.62c-10.57-24.14-15.84-49.94-15.84-77.4s5.28-53.64,15.84-77.63c10.56-23.99,26.25-43.45,47.07-58.39s46.62-22.41,77.4-22.41c22.33,0,42.24,4.15,59.75,12.45,17.5,8.3,32.29,19.85,44.36,34.63l-14.03,11.32c-21.73-26.85-51.76-40.29-90.08-40.29-25.35,0-47.15,6.11-65.41,18.33-18.26,12.22-32.29,28.9-42.09,50.02-9.81,21.13-14.71,45.12-14.71,71.97s4.9,50.85,14.71,71.97c9.8,21.12,23.83,37.79,42.09,50.02,18.25,12.22,40.06,18.33,65.41,18.33,38.32,0,68.35-13.42,90.08-40.28l14.03,11.32c-12.07,14.48-26.86,25.96-44.36,34.4-17.5,8.45-37.42,12.67-59.75,12.67Z" style="fill: #fff;"/>
      <path d="m5554.76,5469.33h-18.11v-137.15l-138.51-179.7h23.08l124.48,161.59,124.93-161.59h22.63l-138.51,179.7v137.15Z" style="fill: #fff;"/>
    </g>
    <g id="NGS" style="filter: url(#outer-glow-2);">
      <path id="N" d="m345.18,3977.19v-1677.42c630.14,417.14,1260.29,834.27,1890.43,1251.41v-985.15h372.76v1677.42c-639.02-417.14-1278.04-834.27-1917.05-1251.41v985.15h-346.13Z" style="fill: #00959f; filter: url(#outer-glow-3);"/>
      <path id="N_Inner_" data-name="N(Inner)" d="m478.31,3844.06v-1278.04c630.14,417.14,1260.29,834.27,1890.43,1251.41v-1118.28h79.88v1278.04c-630.14-417.14-1260.29-834.27-1890.43-1251.41v1118.28h-79.88Z" style="fill: #fff;"/>
      <path id="G" d="m4699.93,3018.66v-26.63c-1.33-9.05-6.39-33.02-26.63-53.25-19.17-19.17-42.34-25.03-58.84-26.63h-1352.32c-8.52.27-68.43,2.93-106.5,53.25-24.49,32.22-26.63,66.83-26.63,79.88v452.64c0,13.05,2.13,47.66,26.63,79.88,38.07,50.32,97.98,52.99,106.5,53.25h1304.66c8.52-.27,68.43-2.93,106.5-53.25,24.49-32.22,26.63-66.83,26.63-79.88v-53.25h-639.02v-346.13h985.15v430.8c-6.66,78.28-34.35,195.97-131,297.68-123.28,129.93-278.51,148.57-345.07,150.17h-1318.24c-70.03-2.66-215.93-24.23-333.88-146.44-111.83-115.56-132.33-252.68-134.99-320.84v-504.29c3.19-66.56,24.23-197.56,133.13-306.46,18.1-18.11,128.6-124.87,301.41-133.13h1408.5c41.54,0,171.47,6.92,282.77,107.03,109.69,99.05,133.13,227.92,137.39,297.68v47.93h-346.13Z" style="fill: #00959f; filter: url(#outer-glow-4);"/>
      <g id="G_Inner_" data-name="G(Inner)">
        <path d="m4194.04,3258.29h692.27v292.88c0,20.24-2.4,146.97-106.5,239.63-86.8,77.21-187.71,79.88-213.01,79.88h-1384.54c-27.16-5.33-115.56-25.56-186.38-106.5-65.76-75.08-77.22-157.89-79.88-186.38v-585.77c5.06-27.16,25.56-115.56,106.5-186.38,75.09-65.77,157.89-77.22,186.38-79.88h1464.42c20.77,1.6,79.08,8.25,133.13,53.25,60.17,49.79,75.88,113.96,79.88,133.13h-79.88c-2.66-11.18-14.11-51.12-53.25-79.88-33.02-24.23-67.36-26.36-79.88-26.63h-1464.42c-20.77,1.6-79.08,8.25-133.13,53.25-60.17,49.79-75.88,113.96-79.88,133.13v426.01c-.53,12.51-.8,30.89,0,53.25,3.19,95.05,5.86,179.72,53.25,239.63,13.31,16.77,57.25,66.3,159.75,79.88h1224.78c13.05.53,31.42.8,53.25,0,90.53-3.19,179.72-6.13,239.63-53.25,79.88-62.57,80.68-181.59,79.88-213.01v-186.38h-612.39v-79.88Z" style="fill: #fff;"/>
      </g>
      <path id="S" d="m7335.88,3870.68c-132.86,121.94-294.48,108.9-319.51,106.5h-1757.3v-346.13h1624.17c114.23-.53,200.49-30.62,213.01-79.88,1.87-7.46,2.4-16.24,0-26.63-12.51-49.26-98.78-79.35-213.01-79.88h-1251.41c-30.36-2.13-198.09-15.98-319.51-159.75-101.45-120.35-106.5-255.08-106.5-292.88,2.93-42.87,16.24-160.29,106.5-266.26,130.2-152.83,316.05-159.22,346.13-159.75h1757.3v346.13h-1783.93c-7.99,1.06-32.22,5.59-53.25,26.63-5.59,5.59-22.37,23.96-26.63,53.25-.8,5.86-4.79,48.19,26.63,79.88,20.24,20.24,44.2,25.29,53.25,26.63h1384.54c25.03.27,244.42,6.12,372.76,186.38,76.95,108.1,80.68,222.06,79.88,266.26.8,24.23,4.26,193.57-133.13,319.51Z" style="fill: #00959f; filter: url(#outer-glow-5);"/>
      <g id="S_Inner_" data-name="S(Inner)">
        <path d="m5445.45,2992.03c-.8,17.84-2.66,93.72,53.25,159.75,70.56,83.07,173.6,80.41,186.38,79.88h745.52v79.88h-772.15c-22.63-1.86-130.47-13.31-213.01-106.5-77.75-87.86-79.88-188.51-79.88-213.01,2.13-23.43,13.85-130.73,106.5-213.01,100.11-88.93,218.86-81.47,239.63-79.88h1597.55v79.88h-1597.55c-11.98-1.33-134.73-12.25-213.01,79.88-43.67,51.39-51.39,109.16-53.25,133.13Z" style="fill: #fff;"/>
        <path d="m7282.63,3551.18c.8-17.84,2.66-93.72-53.25-159.75-70.56-83.07-173.6-80.41-186.38-79.88h-745.52s0-79.88,0-79.88h772.15c22.63,1.86,130.47,13.31,213.01,106.5,77.75,87.86,79.88,188.51,79.88,213.01-2.13,23.43-13.85,130.73-106.5,213.01-100.11,88.93-218.86,81.47-239.63,79.88h-1597.55s0-79.88,0-79.88h1597.55c11.98,1.33,134.73,12.25,213.01-79.88,43.67-51.39,51.39-109.16,53.25-133.13Z" style="fill: #fff;"/>
      </g>
    </g>
  </g>
</svg>